<?xml version="1.0" encoding="UTF-8" standalone="no"?>
<!DOCTYPE svg PUBLIC "-//W3C//DTD SVG 20010904//EN"
              "http://www.w3.org/TR/2001/REC-SVG-20010904/DTD/svg10.dtd">

<svg xmlns="http://www.w3.org/2000/svg"
     width="220.106mm" height="81.1287mm"
     viewBox="0 0 624 230">
  <path id="Selection"
        fill="none" stroke="black" stroke-width="1"
        d="M 3.00,19.00
           C 6.05,14.48 11.05,15.01 16.00,15.00
             16.00,15.00 40.00,15.00 40.00,15.00
             40.00,15.00 150.00,15.00 150.00,15.00
             150.00,15.00 607.00,15.00 607.00,15.00
             607.00,15.00 607.00,19.00 607.00,19.00
             607.00,19.00 3.00,19.00 3.00,19.00 Z
           M 9.00,23.00
           C 9.00,23.00 14.00,23.00 14.00,23.00
             14.00,23.00 14.00,46.00 14.00,46.00
             14.00,46.00 9.00,46.00 9.00,46.00
             9.00,46.00 9.00,23.00 9.00,23.00 Z
           M 57.00,23.00
           C 57.00,23.00 62.00,23.00 62.00,23.00
             62.00,23.00 62.00,46.00 62.00,46.00
             62.00,46.00 57.00,46.00 57.00,46.00
             57.00,46.00 57.00,23.00 57.00,23.00 Z
           M 93.00,23.00
           C 93.00,23.00 98.00,23.00 98.00,23.00
             98.00,23.00 98.00,46.00 98.00,46.00
             98.00,46.00 93.00,46.00 93.00,46.00
             93.00,46.00 93.00,23.00 93.00,23.00 Z
           M 391.00,43.00
           C 392.08,35.96 393.58,25.68 401.00,23.00
             399.89,28.50 396.86,42.05 391.89,44.83
             389.42,46.21 385.78,46.00 383.00,46.00
             383.00,46.00 303.00,46.00 303.00,46.00
             306.05,41.48 311.05,42.01 316.00,42.00
             333.97,41.97 375.57,40.96 391.00,43.00 Z
           M 545.00,23.00
           C 551.52,25.28 552.09,28.84 553.97,35.00
             554.68,37.36 555.11,40.53 557.31,41.98
             559.19,43.21 562.79,43.00 565.00,43.00
             565.00,43.00 595.00,42.00 595.00,42.00
             595.00,42.00 595.00,46.00 595.00,46.00
             595.00,46.00 564.00,46.00 564.00,46.00
             561.08,45.96 555.82,45.75 553.42,44.02
             550.35,41.80 545.94,27.14 545.00,23.00 Z
           M 597.00,23.00
           C 597.00,23.00 602.00,23.00 602.00,23.00
             602.00,23.00 602.00,46.00 602.00,46.00
             602.00,46.00 597.00,46.00 597.00,46.00
             597.00,46.00 597.00,23.00 597.00,23.00 Z
           M 15.00,46.00
           C 17.98,41.43 22.04,42.01 27.00,42.00
             27.00,42.00 55.00,42.00 55.00,42.00
             55.00,42.00 55.00,46.00 55.00,46.00
             55.00,46.00 15.00,46.00 15.00,46.00 Z
           M 99.00,46.00
           C 102.05,41.48 107.05,42.01 112.00,42.00
             112.00,42.00 139.00,42.00 139.00,42.00
             139.00,42.00 259.00,42.00 259.00,42.00
             259.00,42.00 259.00,46.00 259.00,46.00
             259.00,46.00 99.00,46.00 99.00,46.00 Z
           M 423.00,46.00
           C 425.98,41.43 430.04,42.01 435.00,42.00
             435.00,42.00 454.00,42.00 454.00,42.00
             454.00,42.00 547.00,42.00 547.00,42.00
             547.00,42.00 547.00,46.00 547.00,46.00
             547.00,46.00 423.00,46.00 423.00,46.00 Z
           M 57.00,50.00
           C 57.00,50.00 62.00,50.00 62.00,50.00
             62.00,50.00 62.00,73.00 62.00,73.00
             62.00,73.00 57.00,73.00 57.00,73.00
             57.00,73.00 57.00,50.00 57.00,50.00 Z
           M 93.00,50.00
           C 93.00,50.00 98.00,50.00 98.00,50.00
             98.00,50.00 98.00,73.00 98.00,73.00
             98.00,73.00 93.00,73.00 93.00,73.00
             93.00,73.00 93.00,50.00 93.00,50.00 Z
           M 261.00,50.00
           C 261.00,50.00 266.00,50.00 266.00,50.00
             266.00,50.00 266.00,73.00 266.00,73.00
             266.00,73.00 261.00,73.00 261.00,73.00
             261.00,73.00 261.00,50.00 261.00,50.00 Z
           M 297.00,50.00
           C 297.00,50.00 302.00,50.00 302.00,50.00
             302.00,50.00 302.00,73.00 302.00,73.00
             302.00,73.00 297.00,73.00 297.00,73.00
             297.00,73.00 297.00,50.00 297.00,50.00 Z
           M 377.00,73.00
           C 377.00,73.00 384.70,52.42 384.70,52.42
             384.70,52.42 389.00,50.00 389.00,50.00
             389.00,50.00 381.30,70.58 381.30,70.58
             381.30,70.58 377.00,73.00 377.00,73.00 Z
           M 413.00,73.00
           C 413.00,73.00 420.70,52.42 420.70,52.42
             420.70,52.42 425.00,50.00 425.00,50.00
             425.00,50.00 417.30,70.58 417.30,70.58
             417.30,70.58 413.00,73.00 413.00,73.00 Z
           M 57.00,77.00
           C 57.00,77.00 62.00,77.00 62.00,77.00
             62.00,77.00 62.00,100.00 62.00,100.00
             62.00,100.00 57.00,100.00 57.00,100.00
             57.00,100.00 57.00,77.00 57.00,77.00 Z
           M 93.00,77.00
           C 93.00,77.00 98.00,77.00 98.00,77.00
             98.00,77.00 98.00,100.00 98.00,100.00
             98.00,100.00 93.00,100.00 93.00,100.00
             93.00,100.00 93.00,77.00 93.00,77.00 Z
           M 261.00,77.00
           C 261.00,77.00 266.00,77.00 266.00,77.00
             266.00,77.00 266.00,100.00 266.00,100.00
             266.00,100.00 261.00,100.00 261.00,100.00
             261.00,100.00 261.00,77.00 261.00,77.00 Z
           M 297.00,77.00
           C 297.00,77.00 302.00,77.00 302.00,77.00
             302.00,77.00 302.00,100.00 302.00,100.00
             302.00,100.00 297.00,100.00 297.00,100.00
             297.00,100.00 297.00,77.00 297.00,77.00 Z
           M 377.17,77.96
           C 377.17,77.96 381.61,77.96 381.61,77.96
             381.61,77.96 381.52,99.96 381.52,99.96
             381.52,99.96 377.04,99.96 377.04,99.96
             377.04,99.96 377.17,77.96 377.17,77.96 Z
           M 413.00,77.00
           C 423.57,80.70 420.20,91.19 424.58,95.40
             426.67,97.41 431.25,97.03 434.00,97.00
             434.00,97.00 449.00,96.00 449.00,96.00
             449.00,96.00 499.00,96.00 499.00,96.00
             499.00,96.00 499.00,100.00 499.00,100.00
             499.00,100.00 444.00,100.00 444.00,100.00
             439.20,100.00 425.05,100.60 421.51,97.99
             418.96,96.12 413.86,80.66 413.00,77.00 Z
           M 57.00,104.00
           C 57.00,104.00 62.00,104.00 62.00,104.00
             62.00,104.00 62.00,127.00 62.00,127.00
             62.00,127.00 57.00,127.00 57.00,127.00
             57.00,127.00 57.00,104.00 57.00,104.00 Z
           M 93.00,104.00
           C 93.00,104.00 98.00,104.00 98.00,104.00
             98.00,104.00 98.00,127.00 98.00,127.00
             98.00,127.00 93.00,127.00 93.00,127.00
             93.00,127.00 93.00,104.00 93.00,104.00 Z
           M 261.00,104.00
           C 261.00,104.00 266.00,104.00 266.00,104.00
             266.00,104.00 266.00,127.00 266.00,127.00
             266.00,127.00 261.00,127.00 261.00,127.00
             261.00,127.00 261.00,104.00 261.00,104.00 Z
           M 297.00,104.00
           C 297.00,104.00 302.00,104.00 302.00,104.00
             302.00,104.00 302.00,127.00 302.00,127.00
             302.00,127.00 297.00,127.00 297.00,127.00
             297.00,127.00 297.00,104.00 297.00,104.00 Z
           M 378.36,104.73
           C 384.91,112.09 387.27,124.00 387.27,124.00
             387.27,124.00 461.00,123.94 461.00,123.94
             461.00,123.94 462.06,126.03 462.06,126.03
             462.06,126.03 387.12,126.16 387.12,126.16
             384.58,124.29 379.22,108.38 378.36,104.73 Z
           M 497.00,104.00
           C 497.00,104.00 501.30,106.42 501.30,106.42
             501.30,106.42 509.00,127.00 509.00,127.00
             509.00,127.00 504.70,124.58 504.70,124.58
             504.70,124.58 497.00,104.00 497.00,104.00 Z
           M 57.00,131.00
           C 57.00,131.00 62.00,131.00 62.00,131.00
             62.00,131.00 62.00,154.00 62.00,154.00
             62.00,154.00 57.00,154.00 57.00,154.00
             57.00,154.00 57.00,131.00 57.00,131.00 Z
           M 93.00,131.00
           C 93.00,131.00 98.00,131.00 98.00,131.00
             98.00,131.00 98.00,154.00 98.00,154.00
             98.00,154.00 93.00,154.00 93.00,154.00
             93.00,154.00 93.00,131.00 93.00,131.00 Z
           M 261.00,131.00
           C 261.00,131.00 266.00,131.00 266.00,131.00
             266.00,131.00 266.00,154.00 266.00,154.00
             266.00,154.00 261.00,154.00 261.00,154.00
             261.00,154.00 261.00,131.00 261.00,131.00 Z
           M 297.00,131.00
           C 297.00,131.00 302.00,131.00 302.00,131.00
             302.00,131.00 302.00,154.00 302.00,154.00
             302.00,154.00 297.00,154.00 297.00,154.00
             297.00,154.00 297.00,131.00 297.00,131.00 Z
           M 461.00,131.00
           C 461.00,131.00 465.30,133.42 465.30,133.42
             465.30,133.42 473.00,154.00 473.00,154.00
             473.00,154.00 468.70,151.58 468.70,151.58
             468.70,151.58 461.00,131.00 461.00,131.00 Z
           M 513.00,131.00
           C 513.00,131.00 518.00,131.00 518.00,131.00
             518.00,131.00 518.00,154.00 518.00,154.00
             518.00,154.00 513.00,154.00 513.00,154.00
             513.00,154.00 513.00,131.00 513.00,131.00 Z
           M 57.00,158.00
           C 57.00,158.00 62.00,158.00 62.00,158.00
             62.00,158.00 62.00,181.00 62.00,181.00
             62.00,181.00 57.00,181.00 57.00,181.00
             57.00,181.00 57.00,158.00 57.00,158.00 Z
           M 93.00,158.00
           C 93.00,158.00 98.00,158.00 98.00,158.00
             98.00,158.00 98.00,181.00 98.00,181.00
             98.00,181.00 93.00,181.00 93.00,181.00
             93.00,181.00 93.00,158.00 93.00,158.00 Z
           M 261.00,158.00
           C 261.00,158.00 266.00,158.00 266.00,158.00
             266.00,158.00 266.00,181.00 266.00,181.00
             266.00,181.00 261.00,181.00 261.00,181.00
             261.00,181.00 261.00,158.00 261.00,158.00 Z
           M 297.00,158.00
           C 297.00,158.00 302.00,158.00 302.00,158.00
             302.00,158.00 302.00,181.00 302.00,181.00
             302.00,181.00 297.00,181.00 297.00,181.00
             297.00,181.00 297.00,158.00 297.00,158.00 Z
           M 463.00,178.00
           C 464.08,170.96 465.58,160.68 473.00,158.00
             471.89,163.50 468.86,177.05 463.89,179.83
             461.42,181.21 457.78,181.00 455.00,181.00
             455.00,181.00 303.00,181.00 303.00,181.00
             306.05,176.48 311.05,177.01 316.00,177.00
             316.00,177.00 463.00,178.00 463.00,178.00 Z
           M 509.00,181.00
           C 509.00,181.00 516.70,160.42 516.70,160.42
             516.70,160.42 521.00,158.00 521.00,158.00
             521.00,158.00 513.30,178.58 513.30,178.58
             513.30,178.58 509.00,181.00 509.00,181.00 Z
           M 99.36,180.91
           C 102.41,176.39 107.05,177.01 112.00,177.00
             112.00,177.00 259.00,177.00 259.00,177.00
             259.00,177.00 259.00,181.00 259.00,181.00
             259.00,181.00 99.36,180.91 99.36,180.91 Z
           M 267.00,181.00
           C 271.05,175.11 288.11,177.00 295.00,177.00
             295.00,177.00 295.00,181.00 295.00,181.00
             295.00,181.00 267.00,181.00 267.00,181.00 Z
           M 519.00,181.00
           C 522.05,176.48 527.05,177.01 532.00,177.00
             532.00,177.00 595.00,177.00 595.00,177.00
             595.00,177.00 595.00,181.00 595.00,181.00
             595.00,181.00 519.00,181.00 519.00,181.00 Z
           M 57.00,185.00
           C 57.00,185.00 62.00,185.00 62.00,185.00
             62.00,185.00 62.00,208.00 62.00,208.00
             62.00,208.00 57.00,208.00 57.00,208.00
             57.00,208.00 57.00,185.00 57.00,185.00 Z
           M 355.00,205.00
           C 356.08,197.96 357.58,187.68 365.00,185.00
             363.99,190.00 360.72,203.33 356.78,206.26
             353.27,208.87 342.60,208.00 338.00,208.00
             338.00,208.00 63.55,208.00 63.55,208.00
             66.43,203.72 70.26,204.02 75.00,204.00
             75.00,204.00 355.00,205.00 355.00,205.00 Z
           M 487.00,205.00
           C 488.08,197.96 489.00,193.36 495.91,186.00
             493.73,192.82 492.86,204.05 487.89,206.83
             485.42,208.21 363.00,208.00 363.00,208.00
             365.98,203.43 370.04,204.01 375.00,204.00
             375.00,204.00 487.00,205.00 487.00,205.00 Z
           M 585.00,185.00
           C 585.00,185.00 590.00,185.00 590.00,185.00
             590.00,185.00 590.00,208.00 590.00,208.00
             590.00,208.00 585.00,208.00 585.00,208.00
             585.00,208.00 585.00,185.00 585.00,185.00 Z
           M 579.98,186.99
           C 579.98,186.99 579.99,190.01 579.99,190.01
             579.99,190.01 574.00,189.22 573.97,194.91
             573.97,200.66 580.00,200.01 580.00,200.01
             580.00,200.01 579.99,202.97 579.99,202.97
             572.09,202.97 570.00,199.34 569.94,194.78
             570.00,190.72 570.62,186.84 579.98,186.99 Z
           M 562.00,187.00
           C 562.00,187.00 562.00,200.99 562.00,200.99
             562.00,200.99 569.00,201.01 569.00,201.01
             569.00,201.01 569.01,202.99 569.01,202.99
             569.01,202.99 559.00,202.99 559.00,202.99
             559.00,202.99 559.01,187.02 559.01,187.02
             559.01,187.02 562.00,187.00 562.00,187.00 Z
           M 557.00,202.99
           C 557.00,202.99 557.00,201.00 557.00,201.00
             557.00,201.00 550.01,200.99 550.01,200.99
             550.01,200.99 549.99,187.01 549.99,187.01
             549.99,187.01 547.00,187.00 547.00,187.00
             547.00,187.00 547.01,203.01 547.01,203.01
             547.01,203.01 557.00,202.99 557.00,202.99 Z
           M 545.98,204.02
           C 545.98,204.02 546.00,208.00 546.00,208.00
             546.00,208.00 495.09,207.93 495.09,207.93
             495.09,207.93 500.07,204.07 500.11,204.02
             500.15,203.98 545.98,204.02 545.98,204.02 Z" />
</svg>
